<svg width="315" height="65" viewBox="0 0 315 65" fill="none" xmlns="http://www.w3.org/2000/svg">
<path d="M16.0712 60.0001C15.1876 59.9955 14.3136 59.8178 13.499 59.4771C12.6845 59.1363 11.9453 58.6392 11.3238 58.0141C10.0684 56.7516 9.36838 55.0444 9.37753 53.2681C9.38667 51.4918 10.1043 49.7918 11.3725 48.5422C12.6408 47.2926 14.3557 46.5957 16.1401 46.6048C17.9246 46.6139 19.6323 47.3283 20.8876 48.5908C22.1429 49.8533 22.843 51.5604 22.8338 53.3368C22.8247 55.1131 22.107 56.813 20.8388 58.0626C19.5706 59.3123 17.8556 60.0092 16.0712 60.0001Z" fill="#40C97F"/>
<path d="M16.0712 60.0001C15.1876 59.9955 14.3136 59.8178 13.499 59.4771C12.6845 59.1363 11.9453 58.6392 11.3238 58.0141C10.0684 56.7516 9.36838 55.0444 9.37753 53.2681C9.38667 51.4918 10.1043 49.7918 11.3725 48.5422C12.6408 47.2926 14.3557 46.5957 16.1401 46.6048C17.9246 46.6139 19.6323 47.3283 20.8876 48.5908C22.1429 49.8533 22.843 51.5604 22.8338 53.3368C22.8247 55.1131 22.107 56.813 20.8388 58.0626C19.5706 59.3123 17.8556 60.0092 16.0712 60.0001Z" fill="#40C97F"/>
<path d="M63.4944 60C62.1647 59.9975 60.8656 59.6029 59.7611 58.866C58.6566 58.1291 57.7962 57.083 57.2885 55.8596C56.7808 54.6363 56.6487 53.2907 56.9087 51.9927C57.1687 50.6946 57.8092 49.5024 58.7494 48.5664C59.6896 47.6305 60.8873 46.9929 62.1912 46.734C63.4952 46.4752 64.847 46.6068 66.0759 47.1122C67.3048 47.6176 68.3557 48.4741 69.0959 49.5736C69.8362 50.6731 70.2326 51.9663 70.2351 53.2899C70.2443 54.1736 70.0762 55.0503 69.7407 55.8685C69.4053 56.6868 68.9091 57.4302 68.2813 58.0551C67.6535 58.68 66.9068 59.1739 66.0848 59.5079C65.2628 59.8419 64.3821 60.0091 63.4944 60Z" fill="#40C97F"/>
<path d="M42.6743 21.6671C44.4802 18.8395 47.3834 18.1966 50.3807 17.6785C53.867 17.0543 57.3596 16.505 60.8084 15.7497C65.2792 14.7635 68.9599 12.3291 72.0387 9.02715C74.0656 6.86569 75.7564 4.41463 77.055 1.75528C77.1804 1.5056 77.287 1.24344 77.3936 1C75.7382 2.19221 74.1455 3.43436 72.4525 4.5267C67.5365 7.69137 62.0875 9.58892 56.4504 11.0183C53.8482 11.6862 51.2397 12.3354 48.6375 13.0158C48.0807 13.1714 47.5342 13.3611 47.0009 13.5838C46.4569 13.7735 45.9664 14.0901 45.5704 14.5071C45.1745 14.9241 44.8845 15.4293 44.7248 15.9807C44.0977 17.897 43.3578 19.7758 42.6743 21.6671Z" fill="#5A8CC9"/>
<path d="M40.0063 26.7811C41.6743 25.3018 43.6369 25.0209 45.7688 25.1395C48.509 25.2893 51.2554 25.3517 53.9956 25.4329C58.3849 25.5577 62.2287 23.9785 65.646 21.3007C67.2343 20.0576 68.651 18.6116 69.8597 17C69.6804 17.0463 69.5044 17.1047 69.333 17.1748C65.4426 19.2107 61.1748 20.4321 56.7922 20.7639C53.8138 21.0073 50.8228 21.0323 47.8382 21.2008C46.6216 21.2695 45.3989 21.4131 44.1887 21.5816C43.8457 21.6331 43.5199 21.7645 43.2376 21.9652C42.9554 22.1659 42.7249 22.4301 42.5648 22.7364C41.7308 24.1033 40.8591 25.4329 40.0063 26.7811Z" fill="#0CB4CD"/>
<path fill-rule="evenodd" clip-rule="evenodd" d="M0.176441 45.4927C0.119598 45.6404 0.0626704 45.7884 0.00627041 45.9369L0 53.4834C0.270663 54.1798 0.735483 54.7847 1.33977 55.227C1.94407 55.6694 2.66269 55.9307 3.4111 55.9802C4.56881 56.0634 5.73487 56.0357 6.90186 56.008C7.48571 55.9941 8.06979 55.9802 8.65317 55.9802C6.90372 49.8818 11.4121 45.706 15.6823 45.5125C16.7747 45.4377 17.8703 45.6012 18.8927 45.9914C19.915 46.3817 20.8395 46.9894 21.6016 47.7721C23.8087 49.9817 24.3919 52.6221 23.5956 55.743L55.744 54.994C54.91 48.7957 59.4999 45.6498 63.0615 45.4875C65.0367 45.3693 66.981 46.0182 68.4854 47.2977C70.6738 49.1453 71.5266 51.5609 71.3008 54.426C72.1869 54.3119 73.0297 53.9769 73.751 53.452C74.4723 52.9272 75.0487 52.2294 75.4268 51.4236C76.2295 49.6008 76.3865 47.5606 75.872 45.6373C75.4309 43.8058 75.1228 41.9451 74.9502 40.0695C74.8382 38.7961 74.6477 37.5308 74.3796 36.2806C74.273 35.6065 73.8654 34.9261 73.1255 34.9261C72.3259 34.9381 72.0278 34.5082 71.6675 33.9886C71.652 33.9663 71.6364 33.9438 71.6206 33.9212C71.3153 33.5007 70.9571 33.121 70.5547 32.7914C69.6517 31.9924 68.7237 31.2122 67.7706 30.4631C67.5632 30.3197 67.3965 30.1254 67.2867 29.899C67.1768 29.6727 67.1275 29.4219 67.1436 29.1711C67.1686 28.0662 66.4852 27.442 65.369 27.442C64.9489 27.4437 64.5294 27.4102 64.115 27.3422C63.2041 27.1822 62.2996 27.0063 61.3992 26.8313C59.7706 26.5147 58.1555 26.2007 56.5403 25.9877C53.1856 25.557 49.8121 25.2449 46.4324 24.9952C43.5442 24.74 40.6344 24.8828 37.7855 25.4196C31.2515 26.7942 25.1703 29.7845 20.1029 34.1147C19.3334 34.8016 18.4117 35.2978 17.4129 35.5628C17.0776 35.6442 16.7396 35.7257 16.3998 35.8075C15.6975 35.9767 14.9876 36.1477 14.2777 36.3243L14.0742 36.3745C11.6085 36.982 9.13763 37.5908 6.69053 38.2469C4.00679 38.9959 2.44546 41.0745 1.00327 43.2404C0.818613 43.6121 0.677642 44.0038 0.583148 44.4077C0.454068 44.771 0.315508 45.1312 0.176441 45.4927ZM58.2525 31.4446C58.8391 31.3842 59.4331 31.3231 60.0372 31.2691C59.7644 31.441 59.4953 31.6186 59.227 31.7956C58.706 32.1394 58.1884 32.4809 57.6544 32.7734C54.8578 34.3027 51.8919 35.0081 48.7191 34.259C47.1881 33.9001 45.6788 33.4545 44.1696 33.0089C43.8677 32.9198 43.5659 32.8307 43.2638 32.7422C41.7903 32.3115 40.3356 31.987 39.0062 32.8546C39.204 32.6461 39.4114 32.4346 39.6221 32.2198C40.0927 31.74 40.5796 31.2435 41.0128 30.7261C41.27 30.4314 41.6042 30.2135 41.9784 30.0967C42.3526 29.9799 42.752 29.9687 43.1322 30.0644C43.9222 30.1955 44.7123 30.3328 45.4898 30.5014C45.8047 30.5682 46.1195 30.6362 46.4343 30.7042C49.0601 31.2712 51.6895 31.8389 54.3938 31.7498C55.6637 31.7109 56.9396 31.5797 58.2525 31.4446Z" fill="#0CB4CD"/>
<path d="M271.515 10.1326C270.977 9.92976 270.425 9.76321 269.865 9.6341C269.263 9.50136 268.652 9.418 268.037 9.38483C267.495 9.34705 266.951 9.3848 266.419 9.497C266.212 9.52506 266.012 9.59601 265.833 9.70539C265.654 9.81478 265.5 9.96023 265.379 10.1326C265.231 10.315 265.147 10.5413 265.14 10.7766C265.139 11.1542 265.251 11.5233 265.462 11.8359V11.9273C264.988 11.4463 264.476 11.0045 263.931 10.6062C263.469 10.2711 262.969 9.99222 262.441 9.77535C261.67 9.39406 260.801 9.25744 259.951 9.38354C259.101 9.50964 258.309 9.89253 257.679 10.4816C256.969 11.0998 256.372 11.8396 255.917 12.6668C255.37 13.6301 254.919 14.646 254.572 15.6996C254.178 16.8423 253.901 18.0228 253.747 19.2225C253.578 20.4528 253.523 21.6961 253.582 22.9366C253.582 23.352 253.664 23.9669 253.747 24.8061C253.852 25.725 254.025 26.6347 254.267 27.5272C254.525 28.5148 254.867 29.478 255.29 30.4063C255.676 31.3038 256.263 32.0988 257.007 32.7286C257.883 33.5195 259.02 33.9548 260.196 33.95C260.685 33.95 261.172 33.8872 261.645 33.763C262.485 33.5532 263.237 33.0787 263.791 32.4087C264.531 31.5815 265.159 30.6596 265.66 29.6668C265.594 30.2068 265.553 30.6888 265.532 31.1125C265.511 31.454 265.47 31.7939 265.408 32.1303C265.361 32.3262 265.359 32.5303 265.403 32.7269C265.447 32.9235 265.535 33.1074 265.66 33.2645C266.112 33.7529 266.731 34.0499 267.393 34.0954C268.834 34.3084 270.296 34.3489 271.746 34.2159C272.1 34.1944 272.453 34.1542 272.803 34.0954H273.05L273.294 11.9232C273.294 11.2211 272.712 10.6395 271.515 10.1326ZM266.072 21.146C266.031 22.5087 265.969 23.8339 265.887 25.1301C265.553 26.3201 264.983 27.4296 264.211 28.3914C263.598 29.1854 262.745 29.7582 261.781 30.024C261.273 29.8745 260.865 29.2721 260.584 28.2127C260.251 26.9712 260.069 25.6932 260.044 24.4073C259.973 22.8494 259.995 21.2887 260.11 19.7335C260.203 18.3135 260.417 16.9041 260.749 15.5209C260.904 14.58 261.319 13.7019 261.946 12.9867C262.082 12.8389 262.267 12.7459 262.466 12.725C262.582 12.7407 262.696 12.7714 262.804 12.8164C263.653 13.2057 264.382 13.8186 264.913 14.5903C265.462 15.4153 265.866 16.3286 266.11 17.2907C266.114 18.5121 266.122 19.8166 266.072 21.146Z" fill="#5A8CC9"/>
<path d="M89.7566 26.8504C89.8391 25.4324 89.9148 23.8703 89.9835 22.1642C90.0523 20.4582 90.1142 18.6981 90.1692 16.884C90.2298 15.0671 90.2573 13.3222 90.2518 11.6494C90.2518 9.98761 90.2518 8.45462 90.194 7.07951C90.1734 5.99037 90.0949 4.90312 89.9588 3.82243L88.1803 3.95953C88.0273 3.98794 87.8692 3.96206 87.733 3.88631C87.5968 3.81056 87.4909 3.68962 87.4334 3.54408C87.2196 3.16243 87.098 2.73548 87.0785 2.29775C87.0343 1.80822 87.1272 1.316 87.3467 0.876939C87.4752 0.636262 87.654 0.426492 87.8708 0.262083C88.166 0.0574854 88.5272 -0.0271097 88.8818 0.02528L89.4677 0.0751332C89.8585 0.141539 90.2524 0.1873 90.6479 0.212229L92.0014 0.311936H92.5585L93.1568 0.378407C94.2091 0.440723 95.2572 0.46565 96.2929 0.449032C97.1757 0.453549 98.0566 0.365836 98.9215 0.187303H98.971C99.2344 0.176249 99.4953 0.242148 99.7222 0.377048C99.9492 0.511948 100.133 0.710087 100.25 0.947564C100.394 1.30762 100.46 1.69413 100.444 2.08172C100.432 2.47835 100.324 2.86605 100.131 3.21173C100.029 3.47412 99.8527 3.70029 99.6235 3.86154C99.3943 4.02278 99.1227 4.11184 98.8431 4.11739H98.4552L97.5969 4.04262L97.1017 30.5687C97.4265 30.5578 97.7503 30.5273 98.0714 30.4773C98.3498 30.4503 98.6258 30.4017 98.8967 30.3319C99.1735 30.3276 99.4456 30.4036 99.6805 30.551C99.9154 30.6984 100.103 30.9107 100.221 31.1627C100.37 31.5189 100.436 31.9043 100.415 32.2899C100.394 32.6756 100.287 33.0515 100.102 33.3895C100 33.6519 99.8239 33.8781 99.5946 34.0393C99.3654 34.2006 99.0938 34.2896 98.8142 34.2952H98.7729C97.9146 34.2287 97.1636 34.1789 96.5158 34.1456L94.3246 34.0709L91.9354 33.9961H89.7318C89.1881 34.0086 88.6467 34.0711 88.1143 34.183C87.9618 34.2112 87.8044 34.1852 87.6689 34.1094C87.5334 34.0336 87.4283 33.9128 87.3715 33.7676C87.1582 33.3645 87.0356 32.9192 87.0125 32.4631C86.964 31.9827 87.0573 31.4986 87.2807 31.0714C87.3959 30.8059 87.5779 30.5753 87.8089 30.4025C87.9551 30.3019 88.1206 30.2333 88.2947 30.2011C88.4688 30.1689 88.6477 30.1738 88.8199 30.2155L89.4017 30.2654H89.443C89.6066 29.1334 89.7112 27.9935 89.7566 26.8504Z" fill="#04B4CE"/>
<path d="M102.144 32.0763C102.235 31.5944 102.322 30.83 102.421 29.7789C102.52 28.7278 102.598 27.5189 102.664 26.1729C102.73 24.8268 102.8 23.4268 102.85 21.9603C102.899 20.4937 102.932 19.0896 102.916 17.7726C102.899 16.4556 102.85 15.2799 102.751 14.2413C102.719 13.4886 102.58 12.7443 102.338 12.0312C102.14 11.7146 102.038 11.3462 102.045 10.9718C102.058 10.7423 102.131 10.5203 102.256 10.3279C102.512 9.98771 102.889 9.76008 103.308 9.69222C103.827 9.58283 104.358 9.53818 104.888 9.55928C105.511 9.57976 106.13 9.65904 106.737 9.79608C107.311 9.92522 107.872 10.1074 108.412 10.3403C109.576 10.8139 110.162 11.3831 110.162 12.0436L110.113 14.179C110.994 12.9814 112.043 11.9193 113.228 11.0258C114.202 10.2375 115.404 9.78854 116.653 9.74623C117.148 9.75016 117.642 9.80444 118.126 9.90825C118.69 10.0234 119.236 10.2163 119.748 10.4816C120.264 10.7397 120.727 11.0935 121.114 11.5243C121.514 11.9525 121.758 12.5046 121.807 13.0906C121.865 13.8511 121.865 14.615 121.807 15.3755C121.749 16.4183 121.671 17.648 121.555 19.0688C121.477 20.2736 121.394 21.5116 121.308 22.8576C121.221 24.2037 121.176 25.4583 121.159 26.6714C121.143 27.8845 121.159 28.9854 121.225 29.9326C121.232 30.66 121.358 31.3813 121.596 32.068C121.672 32.1497 121.729 32.2461 121.765 32.3512C121.801 32.4563 121.816 32.5678 121.807 32.6787C121.789 32.8237 121.746 32.9643 121.679 33.0941C121.497 33.3467 121.265 33.5578 120.997 33.7139C120.729 33.8699 120.431 33.9674 120.123 33.9998C119.287 34.1906 118.431 34.2867 117.573 34.2865C117.081 34.2864 116.59 34.2615 116.1 34.2117C115.697 34.179 115.3 34.0909 114.92 33.95C114.095 33.6675 113.682 33.2562 113.682 32.7036C113.909 30.5267 114.095 28.3415 114.227 26.1812C114.359 24.0209 114.445 22.0267 114.478 20.3068C114.513 18.8843 114.464 17.4609 114.33 16.0444C114.202 14.9434 113.991 14.3535 113.682 14.2912C113.514 14.2626 113.342 14.2704 113.178 14.3141C113.014 14.3578 112.86 14.4364 112.729 14.5446C112.379 14.7984 112.065 15.0989 111.796 15.4378C111.441 15.8891 111.129 16.3732 110.864 16.8835C110.553 17.4662 110.278 18.0668 110.038 18.6824L109.795 33.9333L109.547 33.9832C109.407 33.9832 109.027 34.0663 108.421 34.1203C107.759 34.1908 107.093 34.2241 106.428 34.22C105.629 34.2199 104.833 34.149 104.047 34.0081C103.406 33.9381 102.81 33.644 102.363 33.1772C102.25 33.0205 102.172 32.841 102.134 32.6509C102.096 32.4609 102.1 32.2648 102.144 32.0763Z" fill="#04B4CE"/>
<path d="M130.25 34.0704C129.669 33.975 129.1 33.8219 128.55 33.6135C127.934 33.3817 127.342 33.0895 126.783 32.741C126.174 32.3442 125.641 31.8388 125.211 31.2496C123.932 29.6169 123.462 27.3278 123.796 24.5236C123.801 24.306 123.872 24.0951 123.997 23.9181C124.123 23.7411 124.299 23.6062 124.501 23.5306C124.731 23.4328 124.984 23.4067 125.228 23.4559C125.375 23.4715 125.516 23.5203 125.641 23.5986C125.767 23.6768 125.873 23.7826 125.953 23.9079C126.032 24.0333 126.082 24.175 126.099 24.3226C126.117 24.4702 126.101 24.6198 126.053 24.7604C125.803 25.4733 125.721 26.2348 125.813 26.9852C125.904 27.7355 126.167 28.4543 126.581 29.0851C126.899 29.5422 127.289 29.9436 127.737 30.2733C128.157 30.5715 128.612 30.8183 129.09 31.0086C129.524 31.1768 129.975 31.2939 130.435 31.3576C130.806 31.4199 131.183 31.4366 131.558 31.4074C132.185 31.3337 132.763 31.0289 133.179 30.5516C133.633 30.0856 133.936 29.4915 134.046 28.8483C134.067 28.6286 134.067 28.4075 134.046 28.1878C134.028 27.9027 133.965 27.6224 133.86 27.3569C133.726 27.0471 133.536 26.7652 133.299 26.526C132.988 26.2237 132.63 25.9752 132.239 25.7907C131.928 25.5914 131.594 25.4323 131.244 25.317C130.419 24.9016 129.552 24.4862 128.669 23.9876C127.772 23.5174 126.952 22.9107 126.239 22.1888C125.496 21.43 124.899 20.5399 124.477 19.5632C123.995 18.3671 123.774 17.0806 123.829 15.7909C123.767 13.87 124.452 12.0006 125.739 10.5813C126.649 9.62939 127.786 8.92726 129.041 8.54145C130.453 8.09149 131.937 7.91527 133.415 8.02214C134.501 8.07677 135.557 8.40072 136.489 8.9652C137.432 9.54196 138.239 10.3189 138.853 11.2418C139.349 12.0342 139.699 12.9093 139.889 13.8259C140.086 14.6884 140.1 15.5831 139.93 16.4515C139.883 16.8682 139.692 17.2549 139.39 17.5441C139.202 17.6969 138.995 17.8253 138.775 17.9263C138.487 17.9928 138.188 17.9928 137.9 17.9263C137.651 17.8639 137.431 17.7172 137.277 17.5109C137.196 17.4242 137.141 17.3159 137.119 17.1988C137.097 17.0818 137.109 16.9608 137.153 16.8503C137.433 16.1846 137.517 15.4523 137.397 14.7399C137.278 13.9336 136.982 13.1643 136.53 12.4882C136.118 11.7896 135.568 11.1842 134.913 10.7101C134.397 10.324 133.763 10.1315 133.122 10.1658C132.623 10.2082 132.158 10.4363 131.818 10.8056C131.504 11.1524 131.253 11.5517 131.075 11.9855C130.899 12.4037 130.773 12.8417 130.699 13.29C130.629 13.7054 130.58 14.0419 130.555 14.2621C130.448 15.2414 130.548 16.2324 130.848 17.1702C131.087 17.8928 131.491 18.5488 132.028 19.0854C132.552 19.5945 133.154 20.0154 133.811 20.3317C134.492 20.6641 135.185 20.9757 135.907 21.2499L137.648 22.0226C138.228 22.2644 138.772 22.5844 139.266 22.9739C139.742 23.3739 140.14 23.8583 140.442 24.4031C140.793 24.9972 141.019 25.6575 141.106 26.3432C141.19 27.098 141.119 27.8621 140.898 28.5881C140.676 29.3141 140.309 29.9867 139.819 30.5641C138.904 31.7109 137.73 32.6199 136.394 33.2146C135.008 33.8571 133.5 34.1875 131.975 34.1826H131.682C131.202 34.1763 130.724 34.1388 130.25 34.0704Z" fill="#04B4CE"/>
<path d="M146.677 34.1867C145.863 34.1868 145.051 34.1243 144.247 33.9998C143.582 33.9481 142.959 33.6524 142.497 33.1689C142.374 33.0099 142.286 32.827 142.238 32.6316C142.19 32.4363 142.182 32.233 142.216 32.0347C142.295 31.5611 142.386 30.8466 142.481 29.8744C142.575 28.9023 142.674 27.8305 142.774 26.6132C142.873 25.396 142.943 24.1206 143 22.7828C143.058 21.4451 143.079 20.1572 143.079 18.9441C143.086 17.8553 143.038 16.7668 142.934 15.6829C142.884 14.9546 142.737 14.2365 142.497 13.5475C142.306 13.2281 142.209 12.8608 142.216 12.4881C142.226 12.2532 142.31 12.0275 142.456 11.8442C142.577 11.6741 142.733 11.531 142.911 11.4238C143.09 11.3166 143.289 11.2476 143.496 11.221C144.026 11.1041 144.571 11.0635 145.113 11.1006C145.726 11.1342 146.335 11.2204 146.933 11.3581C147.506 11.4869 148.07 11.6534 148.621 11.8567C149.834 12.3303 150.416 12.8994 150.358 13.56L149.904 33.9375L149.656 33.9873C149.305 34.0448 148.951 34.0836 148.596 34.1037C147.959 34.1737 147.318 34.2015 146.677 34.1867ZM147.09 9.73376C146.015 9.77326 144.953 9.48355 144.044 8.90287C143.671 8.69883 143.357 8.39961 143.134 8.03511C142.911 7.6706 142.786 7.25357 142.774 6.82566C142.774 6.41718 142.889 6.01707 143.104 5.67072C143.344 5.2892 143.666 4.96579 144.044 4.72351C144.472 4.44244 144.937 4.22552 145.427 4.07958C145.954 3.92629 146.5 3.84662 147.049 3.84277C147.626 3.84246 148.201 3.92214 148.757 4.07958C149.241 4.22483 149.702 4.44185 150.123 4.72351C150.508 4.96659 150.842 5.28432 151.105 5.65826C151.336 5.9998 151.46 6.40381 151.46 6.81735C151.442 7.24422 151.316 7.65945 151.094 8.0232C150.871 8.38695 150.56 8.687 150.189 8.89456C149.265 9.47864 148.188 9.76825 147.098 9.72545L147.09 9.73376Z" fill="#04B4CE"/>
<path d="M151.711 21.1917C151.582 19.1581 151.796 17.1171 152.343 15.1553C152.768 13.5248 153.579 12.0224 154.707 10.7765C155.448 9.96768 156.383 9.36436 157.422 9.02458C158.461 8.6848 159.57 8.61998 160.641 8.83638C161.122 8.90587 161.595 9.02418 162.052 9.1895C162.55 9.37032 163.03 9.59846 163.484 9.87083C163.482 9.66455 163.508 9.45894 163.563 9.26013C163.814 8.2506 164.603 7.83516 165.927 8.0138C166.33 8.08804 166.726 8.19644 167.111 8.33784C167.526 8.49182 167.922 8.69251 168.292 8.93608C168.627 9.14821 168.935 9.40227 169.208 9.69219C169.322 9.79854 169.413 9.92691 169.477 10.0696C169.541 10.2124 169.576 10.3666 169.579 10.5231C169.521 11.7694 169.521 13.1487 169.579 14.6775V20.6391C169.553 22.7231 169.407 24.8038 169.142 26.8708C168.902 28.8472 168.471 30.7953 167.854 32.687C167.317 34.3722 166.44 35.9279 165.279 37.2569C164.386 38.2458 163.288 39.026 162.064 39.5427C160.839 40.0595 159.517 40.3002 158.19 40.248H157.753C157.596 40.2496 157.44 40.2161 157.297 40.15C157.155 40.0839 157.028 39.9869 156.927 39.8658C156.702 39.6037 156.584 39.2651 156.597 38.9186C156.581 38.4344 156.743 37.9612 157.051 37.5892C157.249 37.3459 157.495 37.1464 157.774 37.0034C158.052 36.8605 158.357 36.777 158.669 36.7583C159.485 36.4807 160.22 36.0023 160.806 35.3666C161.429 34.6731 161.932 33.8798 162.296 33.0193C162.723 32.029 163.044 30.9957 163.253 29.9367C163.497 28.7659 163.669 27.581 163.769 26.3889C163.36 26.9041 162.887 27.3648 162.362 27.7598C161.884 28.1436 161.334 28.4263 160.744 28.5907C159.988 28.8102 159.204 28.9235 158.417 28.9272C156.972 28.9615 155.567 28.4519 154.476 27.4981C154.011 27.0966 153.607 26.6276 153.279 26.1064C152.95 25.592 152.673 25.0449 152.454 24.4737C152.239 23.9223 152.074 23.3521 151.963 22.7703C151.84 22.2512 151.756 21.7235 151.711 21.1917ZM163.62 13.8051C163.62 13.4561 163.571 13.1279 163.554 12.8371C163.538 12.5463 163.554 12.2389 163.554 11.9564C163.26 11.5859 162.901 11.2732 162.494 11.0341C162.056 10.7828 161.565 10.6404 161.062 10.6186C160.563 10.6186 160.109 11.0341 159.696 11.865C159.243 12.8636 158.934 13.9227 158.78 15.0099C158.557 16.357 158.438 17.7197 158.425 19.0854C158.409 20.4075 158.486 21.7292 158.656 23.0404C158.743 24.0422 159.024 25.0174 159.482 25.9111C159.787 26.3805 160.088 26.6007 160.394 26.5716C161.203 26.474 161.952 26.0897 162.506 25.4873C163.142 24.8098 163.649 24.0214 164.004 23.1609C164.062 21.4617 164.045 19.8373 163.967 18.2711C163.781 16.5885 163.678 15.1303 163.62 13.8092V13.8051Z" fill="#04B4CE"/>
<path d="M170.598 31.9932C170.656 31.6443 170.722 31.0003 170.788 30.0531C170.854 29.1059 170.924 27.9759 170.999 26.6132C171.073 25.2506 171.127 23.8049 171.184 22.1888C171.242 20.5727 171.287 18.9275 171.329 17.299C171.37 15.6705 171.403 13.9755 171.411 12.3428C171.42 10.7101 171.411 9.23526 171.411 7.89338C171.407 6.73879 171.345 5.58515 171.226 4.43689C171.185 3.76968 171.065 3.10987 170.867 2.47184C170.678 2.16635 170.578 1.81377 170.578 1.45401C170.593 1.22494 170.665 1.00344 170.788 0.810068C170.913 0.636005 171.071 0.488703 171.253 0.376728C171.435 0.264754 171.638 0.190343 171.849 0.157822C172.379 0.0360072 172.923 -0.0156665 173.466 0.00410826C174.082 0.024607 174.694 0.103897 175.294 0.240911C175.87 0.368939 176.433 0.552583 176.974 0.789296C178.162 1.25044 178.752 1.83621 178.752 2.49677L178.501 19.3098C178.992 18.6292 179.572 18.0185 180.225 17.4943C180.899 16.943 181.62 16.4523 182.379 16.0278C183.124 15.608 183.911 15.2709 184.727 15.0224C185.482 14.7907 186.262 14.6512 187.051 14.6069C187.519 14.6212 187.986 14.6754 188.445 14.769C189.012 14.8946 189.56 15.0987 190.071 15.3755C190.595 15.6459 191.067 16.0074 191.466 16.4432C191.87 16.8972 192.123 17.4662 192.192 18.0717C192.242 18.7424 192.242 19.4159 192.192 20.0866C192.139 20.9175 192.064 21.8481 191.982 22.8493C191.899 23.8505 191.829 24.6524 191.771 25.6037C191.713 26.5551 191.685 27.4566 191.668 28.3249C191.656 29.1221 191.685 29.9195 191.755 30.7137C191.791 31.3154 191.924 31.9074 192.147 32.4668C192.232 32.5543 192.297 32.6596 192.337 32.7752C192.377 32.8909 192.391 33.014 192.378 33.1357C192.304 33.5238 192.092 33.8715 191.782 34.1145C191.473 34.3574 191.086 34.479 190.694 34.4568C189.883 34.6503 189.052 34.7465 188.218 34.7435C187.735 34.7435 187.251 34.7186 186.77 34.6687C186.349 34.6336 185.933 34.5485 185.532 34.4153C184.707 34.1286 184.294 33.6966 184.294 33.1357C184.484 31.5072 184.643 29.8772 184.773 28.2459C184.905 26.6132 184.958 25.1467 184.958 23.8422C184.975 22.7706 184.905 21.6993 184.748 20.6392C184.612 19.8083 184.401 19.3928 184.125 19.3181C183.561 19.2434 182.99 19.3682 182.507 19.6712C181.888 20.0531 181.339 20.541 180.886 21.1128C180.333 21.792 179.861 22.5337 179.479 23.3229C179.064 24.1556 178.756 25.0379 178.562 25.9485C178.559 26.108 178.533 26.2662 178.484 26.418L178.34 33.9832L178.088 34.0331C177.724 34.0919 177.358 34.1321 176.99 34.1535C176.388 34.1951 175.752 34.22 175.014 34.22C174.216 34.2201 173.42 34.1576 172.633 34.0331C171.985 33.989 171.38 33.6906 170.949 33.2022C170.789 33.0502 170.673 32.8581 170.611 32.6456C170.549 32.4331 170.545 32.208 170.598 31.9932Z" fill="#04B4CE"/>
<path d="M193.418 15.0639C193.418 13.963 193.463 12.833 193.471 11.6822C193.48 10.5314 193.471 9.33494 193.471 8.10522C193.261 7.85006 193.132 7.53757 193.1 7.20787C193.091 6.99495 193.132 6.78293 193.22 6.58886C193.432 6.19121 193.79 5.89299 194.218 5.75797C194.767 5.56278 195.338 5.43718 195.918 5.38407C196.568 5.32592 197.221 5.32592 197.87 5.38407C198.461 5.4173 199.046 5.52191 199.612 5.69565C200.092 5.82113 200.531 6.07355 200.882 6.42683C201.059 6.63297 201.166 6.89058 201.188 7.16217C201.188 7.99305 201.188 9.01089 201.147 10.17C201.105 11.3291 201.076 12.5588 201.027 13.909C201.77 13.8425 202.55 13.8093 203.367 13.8093C204.192 13.8093 205.017 13.8093 205.917 13.8591H206.296C206.598 13.9214 206.808 14.1748 206.911 14.6152C207.02 15.0211 207.065 15.4417 207.043 15.8615C207.031 16.228 206.931 16.5859 206.75 16.9043C206.682 17.021 206.585 17.1176 206.469 17.1847C206.352 17.2518 206.22 17.2869 206.086 17.2865C205.666 17.3156 205.244 17.3156 204.823 17.2865H203.552L202.17 17.2117C201.744 17.1951 201.316 17.2202 200.895 17.2865C200.84 18.8624 200.772 20.4162 200.693 21.9478C200.614 23.4808 200.54 24.8559 200.482 26.0233C200.424 27.1907 200.379 28.1919 200.338 28.9314C200.297 29.6709 200.272 30.0614 200.272 30.0946C200.253 30.2528 200.276 30.4132 200.339 30.5593C200.402 30.7054 200.503 30.8318 200.631 30.9255C200.875 31.0939 201.16 31.1929 201.456 31.2122C201.91 31.2277 202.36 31.1216 202.76 30.9047C203.31 30.6153 203.786 30.2015 204.151 29.6958C204.653 29.0028 205.047 28.2364 205.318 27.4233C205.698 26.3309 205.93 25.1921 206.008 24.0375C206.041 23.6062 206.213 23.1978 206.499 22.8742C206.634 22.7254 206.801 22.6104 206.988 22.5383C207.175 22.4662 207.376 22.439 207.576 22.4588C207.982 22.4967 208.367 22.6607 208.677 22.9282C208.851 23.0721 208.991 23.2528 209.087 23.4575C209.184 23.6622 209.234 23.8858 209.234 24.1123C209.259 24.6197 209.227 25.1283 209.14 25.6286C209.028 26.2809 208.868 26.9238 208.661 27.5521C208.428 28.2527 208.153 28.9382 207.836 29.6044C207.515 30.2853 207.113 30.9243 206.639 31.5071C206.097 32.2879 205.384 32.9331 204.556 33.3933C203.728 33.8535 202.806 34.1164 201.86 34.1618H201.316C198.774 34.1618 196.885 33.4694 195.65 32.0846C194.962 31.2791 194.454 30.3341 194.16 29.3136C193.804 28.0761 193.573 26.8052 193.471 25.5206C193.352 24.079 193.294 22.5003 193.31 20.7638C193.327 19.0272 193.36 17.1203 193.418 15.0639Z" fill="#04B4CE"/>
<path d="M214.652 34.1286C213.86 34.1287 213.068 34.0578 212.288 33.9167C211.658 33.8447 211.073 33.5503 210.637 33.0858C210.498 32.9446 210.397 32.7708 210.341 32.58C210.286 32.3892 210.278 32.1876 210.32 31.9932C210.377 31.6525 210.435 31.0003 210.505 30.0531C210.576 29.1059 210.646 27.9759 210.712 26.6215C210.778 25.2672 210.856 23.8007 210.922 22.1888C210.988 20.5768 211.042 18.9275 211.091 17.299C211.141 15.6704 211.153 13.9754 211.17 12.4051C211.186 10.8347 211.17 9.32663 211.17 7.99721C211.17 6.66779 211.091 5.55025 211.009 4.59057C210.98 3.92979 210.869 3.27525 210.679 2.64214C210.48 2.31655 210.378 1.9401 210.386 1.55784C210.397 1.32024 210.469 1.08969 210.596 0.888973C210.858 0.558199 211.233 0.337533 211.648 0.269963C212.181 0.157205 212.727 0.116686 213.27 0.149484C213.891 0.183371 214.508 0.26953 215.115 0.407059C215.683 0.535821 216.243 0.702363 216.79 0.905591C217.978 1.44567 218.564 2.03144 218.54 2.65876L218.288 18.1465C218.894 18.2088 219.551 18.2587 220.256 18.3085C220.962 18.3584 221.68 18.3999 222.419 18.429C223.157 18.4581 223.85 18.429 224.531 18.429C225.136 18.4075 225.739 18.3423 226.335 18.2337C226.395 16.4999 226.431 14.78 226.442 13.0739V8.38772C226.442 6.96275 226.376 5.74966 226.293 4.73598C226.268 4.02929 226.143 3.3298 225.922 2.65876C225.732 2.32942 225.632 1.95525 225.633 1.57445C225.642 1.33651 225.715 1.10546 225.843 0.905591C226.104 0.568209 226.478 0.339016 226.896 0.261654C227.427 0.149068 227.971 0.10855 228.513 0.141175C229.134 0.174809 229.751 0.260971 230.358 0.39875C230.93 0.531372 231.493 0.697839 232.046 0.897282C233.201 1.43736 233.783 2.02313 233.783 2.65045L233.308 33.8918H233.057C232.916 33.8918 232.545 33.9666 231.938 34.033C231.276 34.1003 230.611 34.1322 229.945 34.1286C229.132 34.1329 228.319 34.0619 227.519 33.9167C226.881 33.8465 226.288 33.5523 225.843 33.0858C225.717 32.9377 225.628 32.761 225.584 32.5707C225.54 32.3804 225.543 32.1823 225.592 31.9932C225.606 31.544 225.646 31.096 225.711 30.6513C225.794 30.0365 225.852 29.2845 225.881 28.3996C225.909 27.5147 225.988 26.526 226.046 25.4334C226.103 24.3407 226.157 23.1983 226.215 22.0018L218.205 21.8605L217.995 33.9084H217.747C217.607 33.9084 217.244 33.9832 216.646 34.0497C215.983 34.1127 215.318 34.1391 214.652 34.1286Z" fill="#5A8CC9"/>
<path d="M252.847 23.903C252.569 23.6625 252.233 23.4992 251.873 23.4294C251.523 23.3349 251.154 23.3349 250.804 23.4294C250.645 23.4636 250.499 23.5446 250.385 23.6621C250.271 23.7797 250.195 23.9286 250.165 24.09C250.062 24.5719 249.876 25.2491 249.608 26.1298C249.339 27.0251 248.963 27.8844 248.489 28.689C248.014 29.5021 247.388 30.2157 246.645 30.7911C246.27 31.0799 245.839 31.2858 245.379 31.3953C244.92 31.5049 244.443 31.5156 243.979 31.4267C243.722 31.384 243.479 31.2793 243.271 31.1217C243.062 30.964 242.895 30.7579 242.783 30.5211C242.485 30.0065 242.246 29.4603 242.069 28.8925C241.606 27.1646 241.413 25.3749 241.495 23.5873C241.999 23.6496 242.63 23.6995 243.406 23.7576C244.22 23.7987 245.036 23.7415 245.836 23.5873C246.696 23.4299 247.53 23.1501 248.312 22.7564C249.143 22.3145 249.843 21.6595 250.342 20.8578C250.859 20.0248 251.212 19.0996 251.382 18.1325C251.547 17.1922 251.56 16.2311 251.419 15.2868C251.287 14.4034 251.031 13.5433 250.66 12.7318C250.317 12.0073 249.841 11.3546 249.257 10.8083C248.352 10.0802 247.304 9.55221 246.183 9.25867C245.523 9.10454 244.85 9.01824 244.173 9.0011C243.466 8.98909 242.761 9.07577 242.077 9.25867C240.822 9.61221 239.67 10.2648 238.718 11.1614C237.656 12.1861 236.826 13.4306 236.287 14.809C235.837 15.8731 235.519 16.9895 235.343 18.1325C235.113 19.4214 234.998 20.7283 235 22.0377C234.999 23.383 235.125 24.7253 235.376 26.0467C235.6 27.3034 236.018 28.5171 236.613 29.6445C237.252 31.0217 238.257 32.1938 239.517 33.0306C240.778 33.8673 242.243 34.3361 243.752 34.3847C243.901 34.4213 244.054 34.4353 244.206 34.4262C245.535 34.461 246.847 34.1261 247.998 33.4582C249.051 32.8235 249.974 31.9931 250.718 31.0113C251.44 30.0503 252.018 28.9879 252.434 27.8581C252.834 26.8384 253.111 25.7742 253.26 24.6882C253.262 24.533 253.225 24.3798 253.153 24.2426C253.081 24.1054 252.976 23.9886 252.847 23.903ZM239.956 17.7171C239.435 17.1766 239.148 16.4497 239.159 15.6964C239.169 14.943 239.477 14.2249 240.014 13.6998C240.284 13.4901 240.593 13.3363 240.923 13.2471C241.252 13.1578 241.596 13.1349 241.935 13.1797C242.273 13.2245 242.6 13.336 242.895 13.5079C243.191 13.6799 243.45 13.9088 243.657 14.1817C243.707 14.2481 243.756 14.3188 243.802 14.3935C244.173 13.8189 244.745 13.4053 245.404 13.2346C246.063 13.0638 246.762 13.1483 247.363 13.4713C248.65 14.244 248.708 16.234 247.817 17.5468C247.381 18.2429 246.835 18.8619 246.199 19.3789C245.341 20.2098 244.578 20.9285 243.901 21.5392C242.985 20.7083 242.135 20.0727 241.573 19.4869C241.005 18.9251 240.465 18.3344 239.956 17.7171Z" fill="#5A8CC9"/>
<path d="M274.783 32.0763C274.841 31.6276 274.915 30.8798 275.01 29.8246C275.105 28.7694 275.196 27.5604 275.262 26.1978C275.328 24.8351 275.382 23.4185 275.406 21.9353C275.431 20.4522 275.406 19.0272 275.406 17.6729C275.407 16.4698 275.345 15.2676 275.221 14.071C275.167 13.295 275.011 12.5296 274.759 11.7944C274.571 11.4733 274.471 11.1077 274.47 10.735C274.487 10.4996 274.575 10.275 274.721 10.0911C274.848 9.92006 275.007 9.7759 275.189 9.66682C275.371 9.55775 275.572 9.48591 275.782 9.45543C276.313 9.33844 276.857 9.29788 277.4 9.33495C278.012 9.37203 278.621 9.45956 279.219 9.59668C279.793 9.7221 280.356 9.88729 280.907 10.0911C282.095 10.5979 282.669 11.1837 282.644 11.8442V12.995C283.216 12.2165 283.877 11.5082 284.613 10.8846C285.287 10.2883 286.091 9.86122 286.961 9.63822C287.267 9.5711 287.58 9.53904 287.893 9.54267C288.257 9.54813 288.614 9.63769 288.937 9.8044C289.316 10.019 289.652 10.3004 289.932 10.6353C290.3 11.0854 290.601 11.588 290.823 12.1267C291.046 12.671 291.236 13.2152 291.405 13.7553C291.574 14.2953 291.723 14.823 291.859 15.388L292.457 17.4236C292.68 18.171 292.956 18.9013 293.282 19.6089C293.448 19.7875 293.537 20.025 293.53 20.2694C293.516 20.4142 293.476 20.5552 293.41 20.6849C293.22 20.935 292.98 21.1427 292.706 21.295C292.432 21.4473 292.129 21.5408 291.817 21.5697C290.98 21.7578 290.125 21.8512 289.267 21.8481C288.772 21.8481 288.273 21.8481 287.778 21.7816C287.367 21.7445 286.962 21.6566 286.573 21.5199C285.747 21.2332 285.335 20.8095 285.335 20.2403C285.368 18.994 285.368 17.9762 285.335 17.2325C285.326 16.6757 285.276 16.1203 285.186 15.5708C285.159 15.3052 285.082 15.0473 284.959 14.8105C284.913 14.7185 284.86 14.6297 284.802 14.5446H284.633C284.505 14.5915 284.391 14.6718 284.303 14.7773C284.118 14.9823 283.945 15.1973 283.783 15.4212C283.52 15.8083 283.278 16.2091 283.057 16.6218C282.99 16.7858 282.91 16.9441 282.818 17.0954L282.566 17.4776L282.397 34.0954H282.153C282.013 34.0954 281.658 34.1577 281.093 34.2075C280.527 34.2574 279.855 34.2823 279.166 34.2823C278.352 34.2782 277.54 34.2157 276.735 34.0954C276.073 34.0421 275.454 33.7465 274.994 33.2645C274.868 33.097 274.784 32.9022 274.747 32.6957C274.711 32.4893 274.723 32.2771 274.783 32.0763Z" fill="#5A8CC9"/>
<path d="M294.838 15.0639C294.838 13.963 294.888 12.833 294.904 11.6822C294.921 10.5314 294.904 9.33493 294.904 8.10522C294.691 7.85107 294.559 7.53848 294.524 7.20787C294.516 6.99413 294.56 6.78167 294.652 6.58886C294.754 6.39013 294.895 6.21412 295.065 6.07135C295.236 5.92858 295.434 5.822 295.647 5.75797C296.196 5.56142 296.767 5.43579 297.347 5.38407C297.996 5.32592 298.649 5.32592 299.299 5.38407C299.89 5.41694 300.474 5.52156 301.04 5.69565C301.521 5.82018 301.96 6.07273 302.311 6.42683C302.488 6.63364 302.596 6.89065 302.621 7.16217C302.621 7.99305 302.621 9.01089 302.579 10.17C302.538 11.3291 302.505 12.5588 302.451 13.909C303.202 13.8425 303.978 13.8093 304.799 13.8093C305.621 13.8093 306.45 13.8093 307.35 13.8591H307.795C308.101 13.9214 308.311 14.1748 308.418 14.6152C308.526 15.0213 308.569 15.4419 308.546 15.8615C308.536 16.2283 308.435 16.5867 308.253 16.9043C308.181 17.0173 308.083 17.1111 307.968 17.1776C307.852 17.2442 307.722 17.2815 307.589 17.2865C307.166 17.3156 306.741 17.3156 306.318 17.2865H305.055L303.665 17.2117C303.242 17.1951 302.819 17.2201 302.402 17.2865C302.344 18.861 302.278 20.4148 302.191 21.9478C302.105 23.4808 302.043 24.8559 301.989 26.0233C301.936 27.1907 301.882 28.1919 301.841 28.9314C301.799 29.6709 301.779 30.0614 301.779 30.0946C301.758 30.2525 301.78 30.4131 301.842 30.5594C301.905 30.7057 302.005 30.8323 302.134 30.9255C302.36 31.0878 302.625 31.1867 302.901 31.2122C303.355 31.2167 303.803 31.0991 304.197 30.8715C304.748 30.5822 305.226 30.1684 305.592 29.6626C306.096 28.9797 306.496 28.225 306.78 27.4233C307.159 26.3311 307.388 25.192 307.461 24.0375C307.501 23.6055 307.677 23.1978 307.964 22.8742C308.099 22.7244 308.266 22.6086 308.453 22.5364C308.641 22.4642 308.842 22.4376 309.041 22.4588C309.448 22.4982 309.832 22.6621 310.143 22.9282C310.316 23.0728 310.455 23.2537 310.552 23.4582C310.648 23.6628 310.699 23.886 310.7 24.1122C310.724 24.6202 310.688 25.1292 310.593 25.6286C310.486 26.2816 310.328 26.9249 310.118 27.5521C309.889 28.254 309.614 28.9397 309.293 29.6044C308.971 30.2863 308.566 30.9254 308.088 31.5071C307.546 32.2853 306.835 32.9283 306.008 33.3869C305.181 33.8456 304.261 34.1078 303.318 34.1535H302.777C300.235 34.1535 298.347 33.4611 297.112 32.0763C296.427 31.2641 295.923 30.3135 295.634 29.2887C295.275 28.0534 295.045 26.7834 294.949 25.4998C294.826 24.0541 294.768 22.4754 294.784 20.7388C294.801 19.0023 294.838 17.1203 294.838 15.0639Z" fill="#5A8CC9"/>
<path d="M308.253 0.95551H309.454V3.80545H310.085V0.95551H311.266V0.386353H308.253V0.95551Z" fill="#5A8CC9"/>
<path d="M313.143 2.89563L312.132 0.386353H311.526L311.282 3.80545H311.897L312.054 1.6493L312.933 3.80545H313.354L314.228 1.6493L314.385 3.80545H315L314.757 0.386353H314.15L313.143 2.89563Z" fill="#5A8CC9"/>
<path d="M103.974 48.0668C103.54 47.2554 102.911 46.6412 102.088 46.2239C101.288 45.7835 100.339 45.5633 99.2419 45.5633C97.3444 45.5633 95.8242 46.2007 94.6812 47.4757C93.5381 48.7274 92.9666 50.408 92.9666 52.5174C92.9666 54.7659 93.561 56.5276 94.7497 57.8025C95.9614 59.0542 97.6188 59.6801 99.7219 59.6801C101.162 59.6801 102.374 59.3092 103.357 58.5675C104.363 57.8257 105.094 56.7594 105.551 55.3686H98.1103V50.9875H110.866V56.516C110.432 57.9995 109.689 59.3788 108.638 60.6537C107.609 61.9286 106.294 62.9601 104.694 63.7483C103.094 64.5364 101.288 64.9305 99.2761 64.9305C96.8986 64.9305 94.7726 64.4089 92.898 63.3658C91.0463 62.2995 89.5947 60.8275 88.5431 58.9499C87.5144 57.0723 87 54.9281 87 52.5174C87 50.1066 87.5144 47.9624 88.5431 46.0848C89.5947 44.1841 91.0463 42.7121 92.898 41.669C94.7497 40.6027 96.8644 40.0695 99.2419 40.0695C102.122 40.0695 104.546 40.7765 106.512 42.1905C108.5 43.6045 109.815 45.5633 110.455 48.0668H103.974Z" fill="#40C97F"/>
<path d="M125.69 65C123.426 65 121.346 64.4669 119.449 63.4006C117.574 62.3343 116.077 60.8507 114.957 58.9499C113.859 57.026 113.311 54.8702 113.311 52.4826C113.311 50.095 113.859 47.9509 114.957 46.0501C116.077 44.1493 117.574 42.6657 119.449 41.5994C121.346 40.5331 123.426 40 125.69 40C127.953 40 130.022 40.5331 131.896 41.5994C133.794 42.6657 135.28 44.1493 136.354 46.0501C137.451 47.9509 138 50.095 138 52.4826C138 54.8702 137.451 57.026 136.354 58.9499C135.257 60.8507 133.771 62.3343 131.896 63.4006C130.022 64.4669 127.953 65 125.69 65ZM125.69 59.5758C127.61 59.5758 129.142 58.9268 130.285 57.6287C131.45 56.3306 132.033 54.6152 132.033 52.4826C132.033 50.3268 131.45 48.6115 130.285 47.3366C129.142 46.0385 127.61 45.3894 125.69 45.3894C123.746 45.3894 122.192 46.0269 121.026 47.3018C119.883 48.5767 119.311 50.3037 119.311 52.4826C119.311 54.6384 119.883 56.3653 121.026 57.6634C122.192 58.9383 123.746 59.5758 125.69 59.5758Z" fill="#40C97F"/>
</svg>
